<svg viewBox="0 0 2250 100" xmlns="http://www.w3.org/2000/svg">
  <style>
    .marquee { animation: scroll 45s linear infinite; }
    .label { font-family: 'Inter', system-ui, -apple-system, sans-serif; font-size: 14px; fill: #555; font-weight: 600; }
    @keyframes scroll { 
      0% { transform: translateX(0); } 
      100% { transform: translateX(-2250px); } 
    }
    svg:hover .marquee { animation-play-state: paused; }
  </style>

  <g class="marquee">
    <g transform="translate(0, 35)">
      <g transform="translate(0, 0)"><image href="https://cdn.simpleicons.org/python/3776AB" width="30" height="30" /><text x="40" y="20" class="label">Python</text></g>
      <g transform="translate(150, 0)"><image href="java-svgrepo-com.svg" width="30" height="30" /><text x="40" y="20" class="label">Java</text></g>
      <g transform="translate(300, 0)"><image href="https://cdn.simpleicons.org/typescript/3178C6" width="30" height="30" /><text x="40" y="20" class="label">TypeScript</text></g>
      <g transform="translate(450, 0)"><image href="https://cdn.simpleicons.org/cplusplus/00599C" width="30" height="30" /><text x="40" y="20" class="label">C++</text></g>
      <g transform="translate(600, 0)"><image href="https://cdn.simpleicons.org/nextdotjs/000000" width="30" height="30" /><text x="40" y="20" class="label">Next.js</text></g>
      <g transform="translate(750, 0)"><image href="https://cdn.simpleicons.org/docker/2496ED" width="30" height="30" /><text x="40" y="20" class="label">Docker</text></g>
      <g transform="translate(900, 0)"><image href="aws-svgrepo-com.svg" width="30" height="30" /><text x="40" y="20" class="label">AWS</text></g>
      <g transform="translate(1050, 0)"><image href="https://cdn.simpleicons.org/postman/FF6C37" width="30" height="30" /><text x="40" y="20" class="label">Postman</text></g>
      <g transform="translate(1200, 0)"><image href="https://cdn.simpleicons.org/cloudflare/F38020" width="30" height="30" /><text x="40" y="20" class="label">Cloudflare</text></g>
      <g transform="translate(1350, 0)"><image href="Icon.png" width="30" height="30" /><text x="40" y="20" class="label">Pinecone</text></g>
      <g transform="translate(1500, 0)"><image href="https://cdn.simpleicons.org/langchain/1C3C3C" width="30" height="30" /><text x="40" y="20" class="label">LangChain</text></g>
      <g transform="translate(1650, 0)"><image href="https://cdn.simpleicons.org/postgresql/4169E1" width="30" height="30" /><text x="40" y="20" class="label">PostgreSQL</text></g>
      <g transform="translate(1800, 0)"><image href="https://cdn.simpleicons.org/pytorch/EE4C2C" width="30" height="30" /><text x="40" y="20" class="label">PyTorch</text></g>
      <g transform="translate(1950, 0)"><image href="https://cdn.simpleicons.org/streamlit/FF4B4B" width="30" height="30" /><text x="40" y="20" class="label">Streamlit</text></g>
      <g transform="translate(2100, 0)"><image href="https://cdn.simpleicons.org/github/181717" width="30" height="30" /><text x="40" y="20" class="label">GitHub</text></g>
    </g>

    <g transform="translate(2250, 35)">
      <g transform="translate(0, 0)"><image href="https://cdn.simpleicons.org/python/3776AB" width="30" height="30" /><text x="40" y="20" class="label">Python</text></g>
      <g transform="translate(150, 0)"><image href="java-svgrepo-com.svg" width="30" height="30" /><text x="40" y="20" class="label">Java</text></g>
      <g transform="translate(300, 0)"><image href="https://cdn.simpleicons.org/typescript/3178C6" width="30" height="30" /><text x="40" y="20" class="label">TypeScript</text></g>
      <g transform="translate(450, 0)"><image href="https://cdn.simpleicons.org/cplusplus/00599C" width="30" height="30" /><text x="40" y="20" class="label">C++</text></g>
      <g transform="translate(600, 0)"><image href="https://cdn.simpleicons.org/nextdotjs/000000" width="30" height="30" /><text x="40" y="20" class="label">Next.js</text></g>
      <g transform="translate(750, 0)"><image href="https://cdn.simpleicons.org/docker/2496ED" width="30" height="30" /><text x="40" y="20" class="label">Docker</text></g>
      <g transform="translate(900, 0)"><image href="aws-svgrepo-com.svg" width="30" height="30" /><text x="40" y="20" class="label">AWS</text></g>
      <g transform="translate(1050, 0)"><image href="https://cdn.simpleicons.org/postman/FF6C37" width="30" height="30" /><text x="40" y="20" class="label">Postman</text></g>
      <g transform="translate(1200, 0)"><image href="https://cdn.simpleicons.org/cloudflare/F38020" width="30" height="30" /><text x="40" y="20" class="label">Cloudflare</text></g>
      <g transform="translate(1350, 0)"><image href="Icon.png" width="30" height="30" /><text x="40" y="20" class="label">Pinecone</text></g>
      <g transform="translate(1500, 0)"><image href="https://cdn.simpleicons.org/langchain/1C3C3C" width="30" height="30" /><text x="40" y="20" class="label">LangChain</text></g>
      <g transform="translate(1650, 0)"><image href="https://cdn.simpleicons.org/postgresql/4169E1" width="30" height="30" /><text x="40" y="20" class="label">PostgreSQL</text></g>
      <g transform="translate(1800, 0)"><image href="https://cdn.simpleicons.org/pytorch/EE4C2C" width="30" height="30" /><text x="40" y="20" class="label">PyTorch</text></g>
      <g transform="translate(1950, 0)"><image href="https://cdn.simpleicons.org/streamlit/FF4B4B" width="30" height="30" /><text x="40" y="20" class="label">Streamlit</text></g>
      <g transform="translate(2100, 0)"><image href="https://cdn.simpleicons.org/github/181717" width="30" height="30" /><text x="40" y="20" class="label">GitHub</text></g>
    </g>
  </g>
</svg>
